<svg xmlns="http://www.w3.org/2000/svg" viewBox="0 0 32 32">
  <!-- Dark background -->
  <rect width="32" height="32" fill="#0a0a0a"/>
  <!-- M shape using paths -->
  <path d="M6 24V8h3l4 10 4-10h3v16h-3V14l-4 10h-1l-4-10v10z" fill="#ffffff"/>
  <!-- S shape using paths -->
  <path d="M26 10c0-1.5-1-2.5-3-2.5-2 0-3 .8-3 2 0 1 0.5 1.5 2 2l2 0.5c2.5 0.5 4 1.5 4 3.5 0 2.5-2 4-5 4-3 0-5-1.5-5-4h2.5c0 1.5 1 2.5 2.5 2.5s2.5-0.8 2.5-2c0-1-0.5-1.5-2-2l-2-0.5c-2.5-0.5-4-1.5-4-3.5 0-2.3 2-3.8 5-3.8 2.8 0 4.5 1.3 4.5 3.8z" fill="#ffffff" transform="translate(-2, 0)"/>
  <!-- Gold underline -->
  <rect x="4" y="27" width="24" height="3" fill="#c9a962" rx="1"/>
</svg>